Input #0, mov,mp4,m4a,3gp,3g2,mj2, from '/home/hbattu/projects/huberman-gpt/huberman-audio/mp3/tmp9h3isgy4.mp4':
  Metadata:
    major_brand     : dash
    minor_version   : 0
    compatible_brands: iso6mp41
    creation_time   : 2023-01-07T21:28:42.000000Z
  Duration: 02:40:46.78, start: 0.000000, bitrate: 129 kb/s
    Stream #0:0(eng): Audio: aac (LC) (mp4a / 0x6134706D), 44100 Hz, stereo, fltp, 0 kb/s (default)
    Metadata:
      creation_time   : 2023-01-07T21:28:42.000000Z
      handler_name    : ISO Media file produced by Google Inc.
Stream mapping:
  Stream #0:0 -> #0:0 (aac (native) -> mp3 (libmp3lame))
Press [q] to stop, [?] for help
[graph_0_in_0_0 @ 0x55e78dfa8040] tb:1/44100 samplefmt:fltp samplerate:44100 chlayout:0x3
Output #0, mp3, to '../huberman-audio/mp3/UNCwdFxPtE8.mp3':
  Metadata:
    major_brand     : dash
    minor_version   : 0
    compatible_brands: iso6mp41
    TSSE            : Lavf58.29.100
    Stream #0:0(eng): Audio: mp3 (libmp3lame), 44100 Hz, stereo, fltp, delay 1105 (default)
    Metadata:
      creation_time   : 2023-01-07T21:28:42.000000Z
      handler_name    : ISO Media file produced by Google Inc.
      encoder         : Lavc58.54.100 libmp3lame
No more output streams to write to, finishing.
size=  150732kB time=02:40:46.78 bitrate= 128.0kbits/s speed=92.3x    
[AVIOContext @ 0x55e78de92900] Statistics: 0 seeks, 209 writeouts
video:0kB audio:150731kB subtitle:0kB other streams:0kB global headers:0kB muxing overhead: 0.000224%
Input file #0 (/home/hbattu/projects/huberman-gpt/huberman-audio/mp3/tmp9h3isgy4.mp4):
  Input stream #0:0 (audio): 415452 packets read (154348425 bytes); 415452 frames decoded (425422848 samples); 
  Total: 415452 packets (154348425 bytes) demuxed
Output file #0 (../huberman-audio/mp3/UNCwdFxPtE8.mp3):
  Output stream #0:0 (audio): 369291 frames encoded (425422848 samples); 369292 packets muxed (154348982 bytes); 
  Total: 369292 packets (154348982 bytes) muxed
[AVIOContext @ 0x55e78dec07c0] Statistics: 2 seeks, 590 writeouts
[AVIOContext @ 0x55e78de9b880] Statistics: 156123069 bytes read, 0 seeks
